# xmcd CD database file
#
# Track frame offsets:
#	150
#	28997
#	48930
#	68767
#	91027
#	107805
#	130975
#	163707
#	180330
#	201625
#
# Disc length: 3033 seconds
#
# Revision: 0
# Processed by: cddbd v1.5PL3 Copyright (c) Steve Scherf et al.
# Submitted via: CDex 1.51
#
DISCID=870bd70a
DTITLE=French Jazz Trio - Nostalgia
DYEAR=2004
DGENRE=Jazz
TTITLE0=Sometime Ago
TTITLE1=Manha De Carnival
TTITLE2=In A Sentimental Mood
TTITLE3=Speak Low
TTITLE4=Have You Met Miss Jones
TTITLE5=What Is This Thing Called Love
TTITLE6=In Your Own Sweet Way
TTITLE7=I'm Old Fashioned
TTITLE8=Dear Old Stockholm
TTITLE9=Valses De Septembre
EXTD=YEAR: 2004
EXTT0=
EXTT1=
EXTT2=
EXTT3=
EXTT4=
EXTT5=
EXTT6=
EXTT7=
EXTT8=
EXTT9=
PLAYORDER=
